<svg width="24" height="25" viewBox="0 0 24 25" fill="none" xmlns="http://www.w3.org/2000/svg">
<path fill-rule="evenodd" clip-rule="evenodd" d="M11.9416 8.07918C12.0959 7.98977 12.1908 7.82373 12.1903 7.64418L12.1823 6.68518C12.1823 6.40904 11.9606 6.18518 11.6871 6.18518H9.43173C9.01068 6.18517 8.63565 6.45391 8.4967 6.85518L3.4105 21.5202C3.35755 21.6731 3.38127 21.8425 3.47415 21.9746C3.56703 22.1067 3.71755 22.1852 3.87802 22.1852H16.5484C17.0955 22.1852 17.5389 22.6329 17.5389 23.1852C17.5389 23.7375 17.0955 24.1852 16.5484 24.1852H3.1817C2.5399 24.1854 1.93777 23.8717 1.56607 23.3435C1.19437 22.8152 1.09918 22.138 1.31065 21.5262L7.78453 2.85418C7.9656 2.33282 8.53101 2.05837 9.04742 2.24118C9.56382 2.42399 9.83566 2.99482 9.65459 3.51618C9.59983 3.6701 9.62309 3.84132 9.71687 3.97467C9.81065 4.10801 9.96309 4.18663 10.1251 4.18518H11.695C11.9685 4.18518 12.1903 3.96132 12.1903 3.68518V1.68518C12.1903 0.856754 12.8554 0.185181 13.676 0.185181H16.6475C17.468 0.185181 18.1332 0.856754 18.1332 1.68518V3.68518C18.1332 3.96132 18.355 4.18518 18.6285 4.18518H19.619C20.166 4.18518 20.6095 4.6329 20.6095 5.18518C20.6095 5.73747 20.166 6.18518 19.619 6.18518H18.6285C18.355 6.18518 18.1332 6.40904 18.1332 6.68518V7.64418C18.1329 7.82394 18.2282 7.99002 18.3828 8.07918C20.3769 9.22662 21.6057 11.368 21.6 13.6852C21.6 17.275 18.7175 20.1852 15.1617 20.1852C11.606 20.1852 8.72352 17.275 8.72352 13.6852C8.71816 11.3678 9.94737 9.22652 11.9416 8.07918ZM11.9426 14.1852C11.9426 14.5994 12.2752 14.9352 12.6855 14.9352C13.0958 14.9352 13.4284 14.5994 13.4284 14.1852C13.4284 13.771 13.0958 13.4352 12.6855 13.4352C12.2752 13.4352 11.9426 13.771 11.9426 14.1852ZM15.4093 17.4352C14.999 17.4352 14.6664 17.0994 14.6664 16.6852C14.6664 16.271 14.999 15.9352 15.4093 15.9352C15.8196 15.9352 16.1522 16.271 16.1522 16.6852C16.1522 16.885 16.0732 17.0765 15.9328 17.2173C15.7924 17.3581 15.6022 17.4365 15.4043 17.4352H15.4093ZM16.4 14.3782C16.4 15.0685 16.9543 15.6282 17.6381 15.6282C18.3214 15.6271 18.8751 15.0681 18.8762 14.3782C18.8762 13.6878 18.3219 13.1282 17.6381 13.1282C16.9543 13.1282 16.4 13.6878 16.4 14.3782ZM14.1713 2.68518C14.1713 2.40904 14.393 2.18518 14.6665 2.18518H15.657C15.9306 2.18518 16.1523 2.40904 16.1523 2.68518V3.68518C16.1523 3.96132 15.9306 4.18518 15.657 4.18518H14.6665C14.393 4.18518 14.1713 3.96132 14.1713 3.68518V2.68518ZM16.1523 6.68518C16.1523 6.40904 15.9306 6.18518 15.6571 6.18518H14.6666C14.393 6.18518 14.1713 6.40904 14.1713 6.68518V8.58518C14.1707 8.99759 13.9193 9.3673 13.5384 9.51618C12.4565 9.93852 11.5802 10.7701 11.0958 11.8342C11.0613 11.9117 11.0679 12.0016 11.1135 12.0731C11.1591 12.1446 11.2375 12.1879 11.3217 12.1882H18.998C19.0822 12.1881 19.1606 12.1447 19.2061 12.0731C19.2516 12.0015 19.2579 11.9115 19.2228 11.8342C18.739 10.7703 17.863 9.93896 16.7813 9.51718C16.4015 9.36688 16.1519 8.99696 16.1523 8.58518V6.68518Z" fill="#8D8D8C"/>
</svg>
